<svg width="11" height="11" viewBox="0 0 11 11" fill="none" xmlns="http://www.w3.org/2000/svg">
<path d="M2 7H1.5C1.23478 7 0.98043 6.89464 0.792893 6.70711C0.605357 6.51957 0.5 6.26522 0.5 6V1.5C0.5 1.23478 0.605357 0.98043 0.792893 0.792893C0.98043 0.605357 1.23478 0.5 1.5 0.5H6C6.26522 0.5 6.51957 0.605357 6.70711 0.792893C6.89464 0.98043 7 1.23478 7 1.5V2M5 4H9.5C10.0523 4 10.5 4.44772 10.5 5V9.5C10.5 10.0523 10.0523 10.5 9.5 10.5H5C4.44772 10.5 4 10.0523 4 9.5V5C4 4.44772 4.44772 4 5 4Z" stroke="#706A84" stroke-linecap="round" stroke-linejoin="round"/>
</svg>
