<svg fill="none" height="26" viewBox="0 0 182 26" width="182" xmlns="http://www.w3.org/2000/svg" xmlns:xlink="http://www.w3.org/1999/xlink"><clipPath id="a"><path d="m0 0h182v26h-182z"/></clipPath><g clip-path="url(#a)" fill="#ffff4f"><path d="m6.36436 6.80737h-6.36436v19.11143h20.304v-6.3266h-13.93964z"/><path d="m60.8394 12.0956c6.2489 0 6.7039 3.1523 6.7039 3.1523h6.5431c0-5.1412-3.2863-8.59641-13.1949-8.59641-8.3855 0-12.9257 2.57717-12.9257 9.89381 0 6.4363 3.1618 9.4569 13.0909 9.4569 9.929 0 13.0297-3.6572 13.0297-8.0344h-6.5431s-.0544 2.6562-6.7039 2.6562c-4.9408 0-6.2829-1.9164-6.2829-4.2982 0-2.1206.9031-4.2302 6.2829-4.2302z"/><path d="m89.9273 6.80737-7.9713 7.58443v-7.58443h-6.3666v19.11143h6.3666v-3.824l2.0596-1.8945 5.9117 5.7185h8.6548l-10.4858-9.4701 10.4858-9.64133z"/><path d="m113.569 6.80518h-13.477v19.11362h6.364v-3.8767h7.333c1.983 0 8.06-.8298 8.06-7.9049 0-7.07518-6.464-7.33202-8.28-7.33202zm-.199 9.61062h-6.912v-3.9821h6.804c.894 0 2.632.0658 2.632 1.9164s-1.548 2.0657-2.524 2.0657z"/><path d="m129.947 6.82056h-6.365v19.10044h6.365z"/><path d="m144.257 12.0956c6.249 0 6.704 3.1523 6.704 3.1523h6.543c0-5.1412-3.286-8.59641-13.195-8.59641-8.385 0-12.925 2.57717-12.925 9.89381 0 6.4363 3.162 9.4569 13.091 9.4569s13.029-3.6572 13.029-8.0344h-6.543s-.054 2.6562-6.704 2.6562c-4.94 0-6.283-1.9164-6.283-4.2982 0-2.1206.904-4.2302 6.283-4.2302z"/><path d="m182 6.80737h-8.655l-7.971 7.58443v-7.58443h-6.367v19.11143h6.367v-3.824l2.06-1.8945 5.911 5.7185h8.655l-10.486-9.4701z"/><path d="m42.6176 6.72172c0-3.70551-2.7092-6.72172-6.0407-6.72172h-3.7978c-3.3293 0-6.0407 3.01402-6.0407 6.72172v2.12056h-2.6481v17.07872h21.1753v-17.08091h-2.648v-2.12057zm-11.3526 0c0-1.33469.7989-2.33131 1.5141-2.33131h3.7978c.7152 0 1.5141.99662 1.5141 2.33131v2.12056h-6.826zm9.4741 14.80668h-12.1222v-8.2979h12.1222z"/></g></svg>