<svg width="10" height="10" viewBox="0 0 10 10" fill="none" xmlns="http://www.w3.org/2000/svg">
<path d="M4.35902 0C1.96066 0 0 1.96065 0 4.359C0 6.75735 1.96066 8.718 4.35902 8.718C5.282 8.718 6.13993 8.42754 6.84648 7.93424L8.68688 9.77463C8.98737 10.0751 9.47414 10.0751 9.77463 9.77463C10.0751 9.47414 10.0751 8.98687 9.77463 8.68688L7.93423 6.84649C8.42803 6.13986 8.71799 5.2825 8.71799 4.35955C8.71799 1.9612 6.75733 0.0005513 4.35898 0.0005513L4.35902 0ZM4.35902 1.53847C5.92608 1.53847 7.17956 2.79198 7.17956 4.359C7.17956 5.92602 5.92604 7.17953 4.35902 7.17953C2.79199 7.17953 1.53848 5.92602 1.53848 4.359C1.53848 2.79198 2.79199 1.53847 4.35902 1.53847Z" fill="#A3A0B4"/>
</svg>
