<svg width="23" height="23" viewBox="0 0 23 23" fill="none" xmlns="http://www.w3.org/2000/svg">
<path d="M23 11.5L23 21C23 22.1046 22.1046 23 21 23L2 23C0.895428 23 -1.82907e-06 22.1046 -1.7325e-06 21L-7.14702e-08 2C2.50945e-08 0.895426 0.895432 -3.83979e-06 2 -3.74323e-06L21 -2.08219e-06C22.1046 -1.98563e-06 23 0.89543 23 2L23 11.5ZM9.34375 7.35029L9.34375 10.5004L7.52998 8.68663L5.71622 6.87304L4.17773 8.41171L2.63925 9.95037L7.06962 14.3807L11.5 18.8111L15.9304 14.3807L20.3608 9.95037L18.8223 8.41171L17.2838 6.87304L15.47 8.68663L13.6563 10.5004L13.6563 4.20019L9.34375 4.20019L9.34375 7.35029Z" fill="white"/>
</svg>
